<svg width="168" height="54" viewBox="0 0 168 54" fill="none" xmlns="http://www.w3.org/2000/svg">
<path d="M29.5175 18.4039L23.1215 31.9444L29.5175 46.575H22.5981L16.4347 31.9444L22.6563 18.4039H29.5175ZM9.34093 46.575V8.19112H15.9114V46.575H9.34093Z" fill="#1E1E1E"/>
<path d="M39.4386 13.8139V8.13375H46.3579V13.8139H39.4386ZM46.1835 46.575H39.613V18.4039H46.1835V46.575Z" fill="#1E1E1E"/>
<path d="M78.9322 18.4039L72.5362 31.9444L78.9322 46.575H72.0129L65.8494 31.9444L72.071 18.4039H78.9322ZM58.7557 46.575V8.19112H65.3261V46.575H58.7557Z" fill="#1E1E1E"/>
<path d="M100.482 18.4039H106.995V46.575H100.366V44.1653C99.7847 45.7718 98.4473 46.575 96.3541 46.575H94.5516C90.5977 46.575 88.6207 44.6816 88.6207 40.8949V24.084C88.6207 20.2973 90.5977 18.4039 94.5516 18.4039H96.3541C98.6412 18.4039 100.017 19.3219 100.482 21.1579V18.4039ZM96.8193 41.526H98.5636C99.7653 41.526 100.366 40.8949 100.366 39.6326V25.3463C100.366 24.084 99.7653 23.4529 98.5636 23.4529H96.8193C96.199 23.4529 95.7726 23.5676 95.5401 23.7971C95.3075 23.9884 95.1912 24.39 95.1912 25.002V39.9769C95.1912 40.5889 95.3075 41.0096 95.5401 41.2391C95.7726 41.4304 96.199 41.526 96.8193 41.526Z" fill="#1E1E1E"/>
<path d="M139.647 18.4039L133.251 31.9444L139.647 46.575H132.727L126.564 31.9444L132.786 18.4039H139.647ZM119.47 46.575V8.19112H126.041V46.575H119.47Z" fill="#1E1E1E"/>
<path d="M161.371 18.4039H168V46.575H161.488V43.7636C161.023 45.6379 159.646 46.575 157.359 46.575H155.557C151.603 46.575 149.626 44.6816 149.626 40.8949V18.4039H156.196V39.9769C156.196 40.5889 156.313 41.0096 156.545 41.2391C156.778 41.4304 157.204 41.526 157.825 41.526H159.569C160.771 41.526 161.371 40.8949 161.371 39.6326V18.4039Z" fill="#1E1E1E"/>
<path fill-rule="evenodd" clip-rule="evenodd" d="M52.6731 45.225V51.975H2.0522V2.025H52.6731V8.775H54.7253V0H0V54H54.7253V45.225H52.6731Z" fill="#1E1E1E"/>
</svg>
