<svg width="256" height="92" viewBox="0 0 256 92" fill="none" xmlns="http://www.w3.org/2000/svg">
<path d="M19.58 75H12.355V17.625H19.58V75ZM27.23 54.26H17.285V50.265H28.675C29.1283 50.265 29.44 49.9817 29.61 49.415L34.71 33.35H41.765L37.685 46.355C37.005 48.6217 36.2967 50.3217 35.56 51.455C34.88 52.5317 33.9167 53.2683 32.67 53.665C31.48 54.0617 29.6667 54.26 27.23 54.26ZM30.205 56.3H17.285V52.39H28.93C31.31 52.39 33.1233 52.5883 34.37 52.985C35.6167 53.3817 36.58 54.1467 37.26 55.28C37.9967 56.4133 38.7617 58.0567 39.555 60.21L44.995 75H37.6L31.055 57.15C30.9983 56.8667 30.9133 56.6683 30.8 56.555C30.6867 56.385 30.4883 56.3 30.205 56.3ZM66.5996 75H59.2896V33.35H66.5996V75ZM66.5996 25.36H59.2896V18.39H66.5996V25.36ZM93.1083 75H85.8833V17.625H93.1083V75ZM100.758 54.26H90.8133V50.265H102.203C102.657 50.265 102.968 49.9817 103.138 49.415L108.238 33.35H115.293L111.213 46.355C110.533 48.6217 109.825 50.3217 109.088 51.455C108.408 52.5317 107.445 53.2683 106.198 53.665C105.008 54.0617 103.195 54.26 100.758 54.26ZM103.733 56.3H90.8133V52.39H102.458C104.838 52.39 106.652 52.5883 107.898 52.985C109.145 53.3817 110.108 54.1467 110.788 55.28C111.525 56.4133 112.29 58.0567 113.083 60.21L118.523 75H111.128L104.583 57.15C104.527 56.8667 104.442 56.6683 104.328 56.555C104.215 56.385 104.017 56.3 103.733 56.3ZM143.803 75.595H138.703C135.416 75.595 133.008 74.9433 131.478 73.64C129.948 72.3367 129.183 70.0133 129.183 66.67V60.04C129.183 56.5267 129.976 54.1183 131.563 52.815C133.15 51.455 135.785 50.775 139.468 50.775H151.793V56.13H137.258C136.691 56.13 136.408 56.4133 136.408 56.98V68.795C136.408 69.3617 136.691 69.645 137.258 69.645H150.858V40.235C150.858 39.6683 150.575 39.385 150.008 39.385H131.563V33.35L147.713 33.265C151.453 33.265 154.116 33.9733 155.703 35.39C157.346 36.75 158.168 39.2433 158.168 42.87V75H151.708L150.858 69.645L151.368 67.52C151.368 70.24 150.773 72.28 149.583 73.64C148.45 74.9433 146.523 75.595 143.803 75.595ZM183.321 75H176.096V17.625H183.321V75ZM190.971 54.26H181.026V50.265H192.416C192.87 50.265 193.181 49.9817 193.351 49.415L198.451 33.35H205.506L201.426 46.355C200.746 48.6217 200.038 50.3217 199.301 51.455C198.621 52.5317 197.658 53.2683 196.411 53.665C195.221 54.0617 193.408 54.26 190.971 54.26ZM193.946 56.3H181.026V52.39H192.671C195.051 52.39 196.865 52.5883 198.111 52.985C199.358 53.3817 200.321 54.1467 201.001 55.28C201.738 56.4133 202.503 58.0567 203.296 60.21L208.736 75H201.341L194.796 57.15C194.74 56.8667 194.655 56.6683 194.541 56.555C194.428 56.385 194.23 56.3 193.946 56.3ZM236.801 75.595H231.276C227.932 75.595 225.496 74.9433 223.966 73.64C222.436 72.3367 221.671 70.0133 221.671 66.67V33.35H228.981V68.795C228.981 69.3617 229.264 69.645 229.831 69.645H243.856L243.771 33.35H251.081V75H244.706L243.856 69.645L244.366 67.52C244.366 70.24 243.771 72.28 242.581 73.64C241.447 74.9433 239.521 75.595 236.801 75.595Z" fill="#1E1E1E"/>
<path d="M1.5 7.5H40H78.5V84.5H1.5V7.5Z" stroke="#1E1E1E" stroke-width="3"/>
</svg>
