<svg width="30" height="30" viewBox="0 0 30 30" fill="none" xmlns="http://www.w3.org/2000/svg">
<path fill-rule="evenodd" clip-rule="evenodd" d="M15 27.5C21.9036 27.5 27.5 21.9036 27.5 15C27.5 8.09644 21.9036 2.5 15 2.5C8.09644 2.5 2.5 8.09644 2.5 15C2.5 21.9036 8.09644 27.5 15 27.5ZM15 30C23.2843 30 30 23.2843 30 15C30 6.71573 23.2843 0 15 0C6.71573 0 0 6.71573 0 15C0 23.2843 6.71573 30 15 30Z" fill="white"/>
<path d="M15 5C16.11 5 17 6.00125 17 7.25C17 8.49875 16.11 9.5 15 9.5C13.89 9.5 13 8.49875 13 7.25C13 6.00125 13.9 5 15 5ZM24 18.5V16.25C21.76 16.25 19.84 15.17 18.4 13.235L17.06 11.435C16.874 11.1813 16.6403 10.9771 16.3757 10.837C16.1112 10.697 15.8224 10.6246 15.53 10.625H14.5C13.89 10.625 13.33 10.9175 12.95 11.435L11.61 13.235C10.16 15.17 8.24 16.25 6 16.25V18.5C8.77 18.5 11.19 17.1837 13 14.8438V17.375L9.12 19.1187C8.45 19.4225 8 20.1875 8 20.9862C8 22.1 8.8 23 9.79 23H12V22.4375C12 21.6916 12.2634 20.9762 12.7322 20.4488C13.2011 19.9213 13.837 19.625 14.5 19.625H17.5C17.78 19.625 18 19.8725 18 20.1875C18 20.5025 17.78 20.75 17.5 20.75H14.5C13.67 20.75 13 21.5038 13 22.4375V23H20.21C21.2 23 22 22.1 22 20.9862C22 20.1875 21.55 19.4225 20.88 19.1187L17 17.375V14.8438C18.81 17.1837 21.23 18.5 24 18.5Z" fill="white"/>
</svg>
