<svg width="127" height="43" viewBox="0 0 127 43" fill="none" xmlns="http://www.w3.org/2000/svg">
<path d="M1 3.42933L2.38889 2.90534C3.77778 2.38136 6.55556 1.3334 9.33333 1.06213C12.1111 0.790849 14.8889 1.29626 17.6667 4.83895C20.4444 8.38165 23.2222 14.9616 26 21.5526C28.7778 28.1436 31.5556 34.7457 34.3333 31.9289C37.1111 29.112 39.8889 16.8763 42.6667 12.0274C45.4444 7.17849 48.2222 9.71635 51 9.22993C53.7778 8.7435 56.5556 5.23278 59.3333 9.05055C62.1111 12.8683 64.8889 24.0146 67.6667 26.9649C70.4444 29.9152 73.2222 24.6696 76 21.7818C78.7778 18.8939 81.5556 18.3637 84.3333 20.0458C87.1111 21.7279 89.8889 25.6222 92.6667 28.6379C95.4444 31.6537 98.2222 33.791 101 33.9551C103.778 34.1192 106.556 32.3101 109.333 29.2592C112.111 26.2083 114.889 21.9156 117.667 23.9432C120.444 25.9708 123.222 34.3187 124.611 38.4927L126 42.6667" stroke="#F20E0E" stroke-width="1.5"/>
</svg>
