<svg width="127" height="44" viewBox="0 0 127 44" fill="none" xmlns="http://www.w3.org/2000/svg">
<path d="M1 42.6511L2.38889 40.1917C3.77778 37.7324 6.55556 32.8136 9.33333 33.6344C12.1111 34.4552 14.8889 41.0154 17.6667 41.0992C20.4444 41.183 23.2222 34.7903 26 34.1555C28.7778 33.5208 31.5556 38.644 34.3333 39.2977C37.1111 39.9514 39.8889 36.1356 42.6667 32.1336C45.4444 28.1317 48.2222 23.9435 51 20.3292C53.7778 16.7149 56.5556 13.6744 59.3333 14.5322C62.1111 15.39 64.8889 20.1462 67.6667 23.2658C70.4444 26.3853 73.2222 27.8683 76 26.608C78.7778 25.3478 81.5556 21.3444 84.3333 24.0188C87.1111 26.6933 89.8889 36.0455 92.6667 40.1526C95.4444 44.2596 98.2222 43.1215 101 38.2884C103.778 33.4553 106.556 24.9273 109.333 23.8013C112.111 22.6752 114.889 28.9513 117.667 26.3847C120.444 23.8182 123.222 12.4091 124.611 6.70455L126 1" stroke="#08B308" stroke-width="1.5"/>
</svg>
