<svg width="30" height="30" viewBox="0 0 30 30" fill="none" xmlns="http://www.w3.org/2000/svg">
<path d="M4.41 7.64286C3.825 7.08571 3.825 6.17143 4.41 5.61429C4.54877 5.48185 4.7136 5.37678 4.89506 5.3051C5.07652 5.23341 5.27105 5.19651 5.4675 5.19651C5.66395 5.19651 5.85847 5.23341 6.03993 5.3051C6.22139 5.37678 6.38623 5.48185 6.525 5.61429L16.605 13.3L17.13 13.7C18.3 14.8143 18.3 16.6286 17.13 17.7429C15.96 18.8571 14.055 18.8571 12.885 17.7429L12.465 17.2429L4.41 7.64286M15 27.1429C18.1826 27.1429 21.2348 25.9388 23.4853 23.7955C25.7357 21.6522 27 18.7453 27 15.7143C27 12.5571 25.65 9.7 23.49 7.62857L25.605 5.61429C27 6.93907 28.1065 8.51334 28.8607 10.2466C29.6149 11.9799 30.0021 13.8381 30 15.7143C30 19.5031 28.4196 23.1367 25.6066 25.8158C22.7935 28.4949 18.9782 30 15 30C13.0302 30 11.0796 29.6305 9.25975 28.9126C7.43986 28.1946 5.78628 27.1424 4.3934 25.8158C1.58035 23.1367 0 19.5031 0 15.7143H3C3 18.7453 4.26428 21.6522 6.51472 23.7955C8.76515 25.9388 11.8174 27.1429 15 27.1429ZM15 0C15.7956 0 16.5587 0.30102 17.1213 0.836838C17.6839 1.37266 18 2.09938 18 2.85714C18 3.6149 17.6839 4.34163 17.1213 4.87745C16.5587 5.41327 15.7956 5.71429 15 5.71429C14.2043 5.71429 13.4413 5.41327 12.8787 4.87745C12.3161 4.34163 12 3.6149 12 2.85714C12 2.09938 12.3161 1.37266 12.8787 0.836838C13.4413 0.30102 14.2043 0 15 0Z" fill="white"/>
</svg>
